<?xml version="1.0"?>
<svg xmlns="http://www.w3.org/2000/svg" id="Filled" viewBox="0 0 512 512" width="512" height="512"><path d="M361.02,250.72,360,248H200l-1.02,2.72a223.988,223.988,0,0,1-75.338,100.548L118.4,355.2A16,16,0,0,0,112,368v24H448V368a16,16,0,0,0-6.4-12.8l-5.242-3.932A223.988,223.988,0,0,1,361.02,250.72Z" style="fill:#c3c6c7"/><polygon points="136 360 104 360 112 24 128 24 136 360" style="fill:#e9eef2"/><path d="M176,392H64a32,32,0,0,1,32-32h48a32,32,0,0,1,32,32Z" style="fill:#dadcde"/><path d="M120,488h0a16,16,0,0,1-16-16V392h32v80A16,16,0,0,1,120,488Z" style="fill:#c3c6c7"/><path d="M373.13,277.5A96.009,96.009,0,0,1,288.58,328H271.42a96.009,96.009,0,0,1-84.55-50.5,221.027,221.027,0,0,0,12.11-26.78L200,248H360l1.02,2.72A221.027,221.027,0,0,0,373.13,277.5Z" style="fill:#dadcde"/><path d="M288.579,280H271.421a96,96,0,0,1-95.581-87.039l-6-64A96,96,0,0,1,265.421,24h29.158A96,96,0,0,1,390.16,128.961l-6,64A96,96,0,0,1,288.579,280Z" style="fill:#e9eef2"/><path d="M362.22,125.31,362,128l-1.34,16L358,176l-1.11,13.31c-.08.9-.17,1.8-.28,2.69a64,64,0,0,1-63.5,56H266.89a63.94,63.94,0,0,1-63.5-56c-.11-.89-.2-1.79-.28-2.69L202,176l-1.33-16-1.33-16L198,128l-.22-2.69a64.119,64.119,0,0,1,.26-13.31,63.114,63.114,0,0,1,4.16-16,64.157,64.157,0,0,1,59.36-40h36.88A64.157,64.157,0,0,1,357.8,96a63.114,63.114,0,0,1,4.16,16A64.119,64.119,0,0,1,362.22,125.31Z" style="fill:#757c80"/><path d="M446.4,348.8l-5.24-3.93A215.6,215.6,0,0,1,369.2,249.688a103.737,103.737,0,0,0,22.93-55.98l6-64A104,104,0,0,0,294.579,16H265.421A104,104,0,0,0,161.875,129.708l6,64A103.74,103.74,0,0,0,190.8,249.676a216.592,216.592,0,0,1-47.661,73.915L136,23.81A8,8,0,0,0,128,16H112a8,8,0,0,0-8,7.81L96.188,352H96a40.045,40.045,0,0,0-40,40,8,8,0,0,0,8,8H96v72a24,24,0,0,0,46.825,7.4,40,40,0,0,0,1.175-78.6V400H448a8,8,0,0,0,8-8V368A24.106,24.106,0,0,0,446.4,348.8ZM202.967,262.258A103.746,103.746,0,0,0,271.421,288h17.158a103.751,103.751,0,0,0,68.439-25.729q3.236,7.67,6.993,15.056A87.915,87.915,0,0,1,288.58,320H271.42a87.914,87.914,0,0,1-75.453-42.709Q199.731,269.907,202.967,262.258ZM177.805,128.214A88,88,0,0,1,265.421,32h29.158A88,88,0,0,1,382.2,128.214l-6,64A87.621,87.621,0,0,1,288.579,272H271.421a87.621,87.621,0,0,1-87.616-79.786ZM119.812,32h.376l7.619,320H112.193ZM120,480a8.009,8.009,0,0,1-8-8V400h16v72A8.009,8.009,0,0,1,120,480Zm40-40a24.039,24.039,0,0,1-16,22.624V417.376A24.039,24.039,0,0,1,160,440ZM73.371,384A24.042,24.042,0,0,1,96,368h48a24.042,24.042,0,0,1,22.629,16ZM440,384H183.2A40.067,40.067,0,0,0,144,352h-.188l-.163-6.821a232.318,232.318,0,0,0,43.541-52.158A103.889,103.889,0,0,0,271.42,336h17.16a103.887,103.887,0,0,0,84.212-42.954A231.589,231.589,0,0,0,431.56,357.67L436.8,361.6A8.029,8.029,0,0,1,440,368Z"/><path d="M218.137,236.983A71.809,71.809,0,0,0,266.889,256h26.222a72,72,0,0,0,71.752-66.021l5.333-64A72,72,0,0,0,298.445,48h-36.89A72,72,0,0,0,189.8,125.979l5.333,64A71.812,71.812,0,0,0,218.137,236.983ZM272,96v16H206.111a54.89,54.89,0,0,1,4.808-16Zm77.081,0a54.89,54.89,0,0,1,4.808,16H288V96ZM288,176V160h63.306l-1.333,16Zm0-32V128h65.972l-1.333,16Zm-16-16v16H207.361l-1.333-16Zm0,32v16H210.027l-1.333-16Zm0,32v16H216.363a55.2,55.2,0,0,1-4.887-16Zm-44.117,32H272v16h-5.111A55.92,55.92,0,0,1,227.883,224ZM288,240V224h44.117a55.92,55.92,0,0,1-39.006,16Zm55.637-32H288V192h60.524A55.2,55.2,0,0,1,343.637,208Zm-6-128H288V64h10.445A55.338,55.338,0,0,1,337.639,80ZM261.555,64H272V80H222.361A55.338,55.338,0,0,1,261.555,64Z"/></svg>
